<?xml version="1.0" encoding="UTF-8"?>
<!-- Created with Inkscape (http://www.inkscape.org/) -->
<svg width="213.04mm" height="66.212mm" version="1.1" viewBox="0 0 213.04 66.212" xml:space="preserve" xmlns="http://www.w3.org/2000/svg"><g transform="translate(-.60882 -63.825)"><path d="m27.02 129.51c-0.51501-0.515-0.52917-0.88194-0.52917-13.713v-13.184l0.79102-1.1942c1.1825-1.7852 16.845-17.003 17.603-17.103 0.36562-0.04813 0.85014 0.14371 1.1694 0.46302 0.53587 0.53587 0.5452 0.7695 0.5452 13.655 0 10.852-0.0651 13.233-0.37797 13.824-0.20788 0.39296-4.2305 4.5542-8.9391 9.2473-6.0745 6.0544-8.7313 8.5328-9.147 8.5328-0.32224 0-0.82402-0.23812-1.1151-0.52917zm-16.542-13.824c-5.1958-5.2751-9.5677-9.8503-9.7153-10.167-0.14756-0.31669-0.19834-0.85247-0.11286-1.1906 0.08548-0.33815 2.6371-3.0854 5.6704-6.1049 4.6837-4.6626 5.6329-5.4901 6.2973-5.4901 0.65903 0 1.4702 0.6887 5.145 4.3684l4.3626 4.3684 0.07429 11.196c0.07322 11.035 0.0663 11.206-0.48222 11.903-0.31942 0.40608-0.81974 0.70749-1.1744 0.70749-0.46232 0-2.996-2.4144-10.065-9.5911zm126.83-1.5413c-2.1466-0.31494-3.8442-1.1984-5.5315-2.8788-2.4458-2.4358-3.4763-5.231-3.467-9.4044 0.0117-5.2351 2.2689-9.0132 6.6122-11.068 1.5747-0.74486 2.0268-0.83611 4.1486-0.83728 2.0631-0.0011 2.579 0.09579 3.8612 0.72548 0.81396 0.39974 1.9153 1.1496 2.4474 1.6664l0.96746 0.93958v-13.519h5.8208l-1.8e-4 16.999-1.8e-4 16.999h-5.8207l9e-5 -1.5626 1e-4 -1.5626-1.1245 1.1327c-2.0136 2.0283-4.7187 2.8382-7.9139 2.3694zm5.9142-5.8302c2.0176-1.0224 3.0958-3.2139 3.11-6.3207 0.0149-3.2857-1.5866-5.7946-4.1986-6.5772-3.1057-0.9305-6.5182 0.72065-7.3681 3.5652-0.75198 2.5167-0.18322 6.4304 1.1678 8.0361 1.6943 2.0135 4.7881 2.5639 7.2888 1.2967zm-33.89 5.4314c-5.8936-1.5849-9.4418-7.2418-8.5404-13.616 0.57272-4.0498 2.7964-7.2026 6.2287-8.8311 4.1714-1.9792 8.2371-1.9853 12.248-0.01851 8.1673 4.0053 8.6748 16.107 0.88423 21.084-2.6758 1.7097-7.3706 2.309-10.82 1.3814zm5.7213-4.9158c1.7622-0.44372 3.5917-2.2844 4.147-4.1724 1.7012-5.7831-2.0704-10.632-7.4211-9.5408-1.3333 0.27187-1.7371 0.50858-2.9011 1.7006-1.6014 1.6399-2.0935 3.1802-1.8959 5.9333 0.32645 4.5474 3.791 7.157 8.071 6.0793zm47.035 4.9787c-2.4691-0.81432-3.6927-1.8622-4.6822-4.0098-0.59274-1.2866-0.61175-1.5719-0.69145-10.385l-0.082-9.062h6.117v7.6169c0 7.3786 0.0186 7.6532 0.59531 8.7778 0.76141 1.4849 1.9447 2.1262 3.923 2.1262 2.2009 0 3.6183-0.82263 4.5437-2.637l0.7276-1.4266v-14.457h6.0854l-4.3e-4 11.708-4.3e-4 11.708-6.0846 4e-3v-3.1665l-0.81322 0.98659c-0.44728 0.54262-1.3684 1.3119-2.0469 1.7096-1.09 0.63877-1.5422 0.73079-3.8831 0.79012-1.6603 0.0421-3.0446-0.0632-3.7078-0.28189zm37.107 0.0685c-3.4004-0.8014-6.1077-3.3057-6.7688-6.2612l-0.25153-1.1245 1.8901-3e-3c1.0396-2e-3 2.3366-0.0767 2.8823-0.16691 0.80059-0.13233 0.99218-0.0825 0.99218 0.25829 0 0.23226 0.36983 0.8435 0.82184 1.3583 1.058 1.2049 3.0734 1.8282 5.427 1.6784 2.302-0.14658 3.1438-0.77458 3.1438-2.3451 0-0.99625-0.10446-1.2077-0.79375-1.6066-0.43656-0.25263-2.4582-0.83843-4.4925-1.3018-4.0253-0.91685-5.9568-1.6663-7.0806-2.7473-2.4727-2.3786-2.3301-6.5141 0.31591-9.1601 1.5432-1.5433 3.5874-2.3478 6.485-2.5522 5.6831-0.40106 9.8724 1.7827 10.859 5.6603l0.32314 1.2703-5.0373 0.15246-0.79873-0.96899c-1.038-1.2592-2.1415-1.697-4.2779-1.697-2.8145 0-4.3744 0.99169-3.987 2.5348 0.26019 1.0367 1.194 1.4138 5.8704 2.3702 4.8916 1.0005 6.8745 1.7886 7.9072 3.1424 1.1394 1.4939 1.3537 4.3271 0.502 6.6369-0.76954 2.0869-3.0114 3.9693-5.6442 4.7392-1.5799 0.46198-6.5529 0.54177-8.2874 0.13298zm-137.52-11.801 3.14e-4 -11.692 6.0865-0.16432-0.00104 2.8397 1.0921-0.98664c1.736-1.5684 3.1902-2.1102 5.6548-2.107 3.1017 4e-3 5.4329 1.2039 6.6846 3.4406 0.21149 0.37791 0.43038 0.25661 1.5434-0.85531 1.9967-1.9948 3.4449-2.5884 6.324-2.5926 1.9295-0.0028 2.6322 0.11202 3.7042 0.60497 1.729 0.79514 3.1273 2.1843 3.8863 3.8611 0.59463 1.3137 0.61393 1.6018 0.69338 10.347l0.0817 8.9958h-5.9843l-0.1323-8.0822c-0.11666-7.1273-0.18729-8.166-0.5978-8.7919-0.66206-1.0094-1.8861-1.5565-3.515-1.5711-1.7044-0.01532-2.9187 0.61707-3.683 1.9181-0.49921 0.84975-0.54819 1.4832-0.67082 8.6757l-0.13229 7.759-6.0854-2.8e-4 -0.07613-7.7588c-0.06561-6.6859-0.13878-7.8864-0.52917-8.6814-0.66994-1.3643-1.9634-2.1202-3.628-2.1202-1.7962 0-2.9608 0.76314-3.8365 2.5139-0.64677 1.2932-0.6644 1.487-0.79375 8.7309l-0.13229 7.4083h-5.9538zm121.56 11.582c-0.0621-0.0606-0.11284-7.7104-0.11284-16.999v-16.889h6.0854v34.004l-2.9299-2e-3c-1.6114-1e-3 -2.9806-0.0521-3.0427-0.11275zm-167.4-24.299c-7.318-7.3211-7.8697-7.9379-7.8697-8.799 0-0.86139 0.55215-1.478 7.9061-8.8288 6.4001-6.3975 8.0401-7.9028 8.6097-7.9028 0.55339 0 1.6757 0.95012 5.257 4.4502 9.7363 9.5158 11.22 11.067 11.376 11.888 0.1421 0.7497-0.29965 1.2452-7.9606 8.9297-6.3672 6.3867-8.2548 8.1359-8.7799 8.1359-0.52407 0-2.372-1.7039-8.5385-7.873z" fill="#9e2019"/></g></svg>
